<mxfile host="Electron" agent="Mozilla/5.0 (Windows NT 10.0; Win64; x64) AppleWebKit/537.36 (KHTML, like Gecko) draw.io/26.0.4 Chrome/128.0.6613.186 Electron/32.2.5 Safari/537.36" version="26.0.4">
  <diagram name="Page-1" id="e7e014a7-5840-1c2e-5031-d8a46d1fe8dd">
    <mxGraphModel dx="1050" dy="621" grid="1" gridSize="10" guides="1" tooltips="1" connect="1" arrows="1" fold="1" page="1" pageScale="1" pageWidth="1169" pageHeight="826" background="none" math="0" shadow="0">
      <root>
        <mxCell id="0" />
        <mxCell id="1" parent="0" />
        <mxCell id="cqYoJdc-7ppIG0arM_6N-51" value="Admin" style="swimlane;whiteSpace=wrap;fillColor=#FFFFFF;" parent="1" vertex="1">
          <mxGeometry x="120" y="100" width="390" height="590" as="geometry" />
        </mxCell>
        <mxCell id="cqYoJdc-7ppIG0arM_6N-52" value="" style="ellipse;shape=startState;fillColor=#000000;strokeColor=#ff0000;" parent="cqYoJdc-7ppIG0arM_6N-51" vertex="1">
          <mxGeometry x="135" y="42" width="30" height="30" as="geometry" />
        </mxCell>
        <mxCell id="cqYoJdc-7ppIG0arM_6N-53" value="" style="edgeStyle=elbowEdgeStyle;elbow=vertical;verticalAlign=bottom;endArrow=open;endSize=8;strokeColor=#FF0000;endFill=1;rounded=0;entryX=0.5;entryY=0;entryDx=0;entryDy=0;exitX=0.5;exitY=1;exitDx=0;exitDy=0;" parent="cqYoJdc-7ppIG0arM_6N-51" source="cqYoJdc-7ppIG0arM_6N-52" target="cqYoJdc-7ppIG0arM_6N-54" edge="1">
          <mxGeometry x="100" y="40" as="geometry">
            <mxPoint x="114.5" y="110" as="targetPoint" />
            <mxPoint x="115.5" y="72" as="sourcePoint" />
            <Array as="points">
              <mxPoint x="95" y="98" />
            </Array>
          </mxGeometry>
        </mxCell>
        <mxCell id="cqYoJdc-7ppIG0arM_6N-54" value="Chọn chức năng quản lý hóa đơn" style="rounded=1;whiteSpace=wrap;html=1;" parent="cqYoJdc-7ppIG0arM_6N-51" vertex="1">
          <mxGeometry x="90" y="112" width="120" height="60" as="geometry" />
        </mxCell>
        <mxCell id="cqYoJdc-7ppIG0arM_6N-55" value="Yêu cầu đăng nhập" style="rounded=1;whiteSpace=wrap;html=1;" parent="cqYoJdc-7ppIG0arM_6N-51" vertex="1">
          <mxGeometry x="90" y="190" width="120" height="60" as="geometry" />
        </mxCell>
        <mxCell id="cqYoJdc-7ppIG0arM_6N-56" value="Cập nhật trạng thái hóa đơn" style="rounded=1;whiteSpace=wrap;html=1;" parent="cqYoJdc-7ppIG0arM_6N-51" vertex="1">
          <mxGeometry x="90" y="270" width="120" height="60" as="geometry" />
        </mxCell>
        <mxCell id="cqYoJdc-7ppIG0arM_6N-57" value="" style="endArrow=open;strokeColor=#FF0000;endFill=1;rounded=0;exitX=0.5;exitY=1;exitDx=0;exitDy=0;entryX=0.5;entryY=0.125;entryDx=0;entryDy=0;entryPerimeter=0;" parent="cqYoJdc-7ppIG0arM_6N-51" source="cqYoJdc-7ppIG0arM_6N-56" target="cqYoJdc-7ppIG0arM_6N-59" edge="1">
          <mxGeometry relative="1" as="geometry">
            <mxPoint x="100" y="395" as="sourcePoint" />
            <mxPoint x="70" y="343" as="targetPoint" />
            <Array as="points" />
          </mxGeometry>
        </mxCell>
        <mxCell id="cqYoJdc-7ppIG0arM_6N-59" value="" style="line;strokeWidth=5;fillColor=#FF1313;align=left;verticalAlign=middle;spacingTop=-1;spacingLeft=3;spacingRight=3;rotatable=0;labelPosition=right;points=[];portConstraint=eastwest;strokeColor=#FF0000;fontStyle=1" parent="cqYoJdc-7ppIG0arM_6N-51" vertex="1">
          <mxGeometry x="87.5" y="370" width="172.5" height="8" as="geometry" />
        </mxCell>
        <mxCell id="cqYoJdc-7ppIG0arM_6N-61" value="Xác nhận" style="rounded=1;whiteSpace=wrap;html=1;" parent="cqYoJdc-7ppIG0arM_6N-51" vertex="1">
          <mxGeometry x="10" y="410" width="70" height="40" as="geometry" />
        </mxCell>
        <mxCell id="cqYoJdc-7ppIG0arM_6N-62" value="Hủy đơn hàng" style="rounded=1;whiteSpace=wrap;html=1;" parent="cqYoJdc-7ppIG0arM_6N-51" vertex="1">
          <mxGeometry x="87.5" y="410" width="70" height="40" as="geometry" />
        </mxCell>
        <mxCell id="cqYoJdc-7ppIG0arM_6N-63" value="Đang giao" style="rounded=1;whiteSpace=wrap;html=1;" parent="cqYoJdc-7ppIG0arM_6N-51" vertex="1">
          <mxGeometry x="165" y="410" width="70" height="40" as="geometry" />
        </mxCell>
        <mxCell id="cqYoJdc-7ppIG0arM_6N-64" value="Đang chuẩn bị" style="rounded=1;whiteSpace=wrap;html=1;" parent="cqYoJdc-7ppIG0arM_6N-51" vertex="1">
          <mxGeometry x="240" y="410" width="70" height="40" as="geometry" />
        </mxCell>
        <mxCell id="cqYoJdc-7ppIG0arM_6N-65" value="" style="endArrow=open;strokeColor=#FF0000;endFill=1;rounded=0;entryX=0.64;entryY=-0.065;entryDx=0;entryDy=0;entryPerimeter=0;exitX=0.098;exitY=0.475;exitDx=0;exitDy=0;exitPerimeter=0;" parent="cqYoJdc-7ppIG0arM_6N-51" source="cqYoJdc-7ppIG0arM_6N-59" target="cqYoJdc-7ppIG0arM_6N-61" edge="1">
          <mxGeometry relative="1" as="geometry">
            <mxPoint x="210" y="473" as="sourcePoint" />
            <mxPoint x="330" y="400" as="targetPoint" />
            <Array as="points" />
          </mxGeometry>
        </mxCell>
        <mxCell id="cqYoJdc-7ppIG0arM_6N-66" value="" style="endArrow=open;strokeColor=#FF0000;endFill=1;rounded=0;exitX=0.195;exitY=0.775;exitDx=0;exitDy=0;exitPerimeter=0;" parent="cqYoJdc-7ppIG0arM_6N-51" source="cqYoJdc-7ppIG0arM_6N-59" target="cqYoJdc-7ppIG0arM_6N-62" edge="1">
          <mxGeometry relative="1" as="geometry">
            <mxPoint x="120" y="469" as="sourcePoint" />
            <mxPoint x="65" y="547" as="targetPoint" />
            <Array as="points" />
          </mxGeometry>
        </mxCell>
        <mxCell id="cqYoJdc-7ppIG0arM_6N-67" value="" style="endArrow=open;strokeColor=#FF0000;endFill=1;rounded=0;exitX=0.437;exitY=0.475;exitDx=0;exitDy=0;exitPerimeter=0;" parent="cqYoJdc-7ppIG0arM_6N-51" source="cqYoJdc-7ppIG0arM_6N-59" target="cqYoJdc-7ppIG0arM_6N-63" edge="1">
          <mxGeometry relative="1" as="geometry">
            <mxPoint x="170" y="480" as="sourcePoint" />
            <mxPoint x="115" y="558" as="targetPoint" />
            <Array as="points" />
          </mxGeometry>
        </mxCell>
        <mxCell id="cqYoJdc-7ppIG0arM_6N-68" value="" style="endArrow=open;strokeColor=#FF0000;endFill=1;rounded=0;exitX=0.682;exitY=0.975;exitDx=0;exitDy=0;exitPerimeter=0;entryX=0.25;entryY=0;entryDx=0;entryDy=0;" parent="cqYoJdc-7ppIG0arM_6N-51" source="cqYoJdc-7ppIG0arM_6N-59" target="cqYoJdc-7ppIG0arM_6N-64" edge="1">
          <mxGeometry relative="1" as="geometry">
            <mxPoint x="210" y="480" as="sourcePoint" />
            <mxPoint x="248" y="563" as="targetPoint" />
            <Array as="points" />
          </mxGeometry>
        </mxCell>
        <mxCell id="cqYoJdc-7ppIG0arM_6N-72" value="" style="endArrow=open;strokeColor=#FF0000;endFill=1;rounded=0;exitX=0.5;exitY=1;exitDx=0;exitDy=0;entryX=0.1;entryY=0;entryDx=0;entryDy=0;entryPerimeter=0;" parent="cqYoJdc-7ppIG0arM_6N-51" source="cqYoJdc-7ppIG0arM_6N-61" target="cqYoJdc-7ppIG0arM_6N-73" edge="1">
          <mxGeometry relative="1" as="geometry">
            <mxPoint x="68" y="630" as="sourcePoint" />
            <mxPoint x="80" y="660" as="targetPoint" />
            <Array as="points" />
          </mxGeometry>
        </mxCell>
        <mxCell id="cqYoJdc-7ppIG0arM_6N-73" value="" style="line;strokeWidth=5;fillColor=#FF1313;align=left;verticalAlign=middle;spacingTop=-1;spacingLeft=3;spacingRight=3;rotatable=0;labelPosition=right;points=[];portConstraint=eastwest;strokeColor=#FF0000;fontStyle=1" parent="cqYoJdc-7ppIG0arM_6N-51" vertex="1">
          <mxGeometry x="118.75" y="510" width="162.5" height="8" as="geometry" />
        </mxCell>
        <mxCell id="cqYoJdc-7ppIG0arM_6N-74" value="" style="endArrow=open;strokeColor=#FF0000;endFill=1;rounded=0;exitX=0.5;exitY=1;exitDx=0;exitDy=0;entryX=0.241;entryY=0.675;entryDx=0;entryDy=0;entryPerimeter=0;" parent="cqYoJdc-7ppIG0arM_6N-51" source="cqYoJdc-7ppIG0arM_6N-62" target="cqYoJdc-7ppIG0arM_6N-73" edge="1">
          <mxGeometry relative="1" as="geometry">
            <mxPoint x="139" y="640" as="sourcePoint" />
            <mxPoint x="120" y="698" as="targetPoint" />
            <Array as="points" />
          </mxGeometry>
        </mxCell>
        <mxCell id="cqYoJdc-7ppIG0arM_6N-75" value="" style="endArrow=open;strokeColor=#FF0000;endFill=1;rounded=0;exitX=0.5;exitY=1;exitDx=0;exitDy=0;entryX=0.422;entryY=0.225;entryDx=0;entryDy=0;entryPerimeter=0;" parent="cqYoJdc-7ppIG0arM_6N-51" source="cqYoJdc-7ppIG0arM_6N-63" target="cqYoJdc-7ppIG0arM_6N-73" edge="1">
          <mxGeometry relative="1" as="geometry">
            <mxPoint x="240" y="630" as="sourcePoint" />
            <mxPoint x="264" y="683" as="targetPoint" />
            <Array as="points" />
          </mxGeometry>
        </mxCell>
        <mxCell id="cqYoJdc-7ppIG0arM_6N-76" value="" style="endArrow=open;strokeColor=#FF0000;endFill=1;rounded=0;exitX=0.5;exitY=1;exitDx=0;exitDy=0;entryX=0.673;entryY=0.325;entryDx=0;entryDy=0;entryPerimeter=0;" parent="cqYoJdc-7ppIG0arM_6N-51" source="cqYoJdc-7ppIG0arM_6N-64" target="cqYoJdc-7ppIG0arM_6N-73" edge="1">
          <mxGeometry relative="1" as="geometry">
            <mxPoint x="191" y="547" as="sourcePoint" />
            <mxPoint x="215" y="600" as="targetPoint" />
            <Array as="points" />
          </mxGeometry>
        </mxCell>
        <mxCell id="cqYoJdc-7ppIG0arM_6N-77" value="" style="ellipse;html=1;shape=endState;fillColor=#000000;strokeColor=#ff0000;" parent="cqYoJdc-7ppIG0arM_6N-51" vertex="1">
          <mxGeometry x="185" y="540" width="30" height="30" as="geometry" />
        </mxCell>
        <mxCell id="cqYoJdc-7ppIG0arM_6N-78" value="" style="endArrow=open;strokeColor=#FF0000;endFill=1;rounded=0;exitX=0.503;exitY=0.975;exitDx=0;exitDy=0;exitPerimeter=0;entryX=0.5;entryY=0;entryDx=0;entryDy=0;" parent="cqYoJdc-7ppIG0arM_6N-51" source="cqYoJdc-7ppIG0arM_6N-73" target="cqYoJdc-7ppIG0arM_6N-77" edge="1">
          <mxGeometry relative="1" as="geometry">
            <mxPoint x="200" y="682.5" as="sourcePoint" />
            <mxPoint x="179" y="710" as="targetPoint" />
            <Array as="points" />
          </mxGeometry>
        </mxCell>
        <mxCell id="cqYoJdc-7ppIG0arM_6N-101" value="" style="endArrow=open;strokeColor=#FF0000;endFill=1;rounded=0;exitX=0.914;exitY=1.075;exitDx=0;exitDy=0;exitPerimeter=0;entryX=0.25;entryY=0;entryDx=0;entryDy=0;" parent="cqYoJdc-7ppIG0arM_6N-51" source="cqYoJdc-7ppIG0arM_6N-59" target="cqYoJdc-7ppIG0arM_6N-102" edge="1">
          <mxGeometry relative="1" as="geometry">
            <mxPoint x="280" y="370" as="sourcePoint" />
            <mxPoint x="340" y="402" as="targetPoint" />
            <Array as="points" />
          </mxGeometry>
        </mxCell>
        <mxCell id="cqYoJdc-7ppIG0arM_6N-102" value="Đã giao" style="rounded=1;whiteSpace=wrap;html=1;" parent="cqYoJdc-7ppIG0arM_6N-51" vertex="1">
          <mxGeometry x="320" y="410" width="70" height="40" as="geometry" />
        </mxCell>
        <mxCell id="cqYoJdc-7ppIG0arM_6N-103" value="" style="endArrow=open;strokeColor=#FF0000;endFill=1;rounded=0;exitX=0.5;exitY=1;exitDx=0;exitDy=0;entryX=0.919;entryY=0.625;entryDx=0;entryDy=0;entryPerimeter=0;" parent="cqYoJdc-7ppIG0arM_6N-51" source="cqYoJdc-7ppIG0arM_6N-102" target="cqYoJdc-7ppIG0arM_6N-73" edge="1">
          <mxGeometry relative="1" as="geometry">
            <mxPoint x="285" y="460" as="sourcePoint" />
            <mxPoint x="280" y="600" as="targetPoint" />
            <Array as="points" />
          </mxGeometry>
        </mxCell>
        <mxCell id="cqYoJdc-7ppIG0arM_6N-79" value="Hệ thống" style="swimlane;whiteSpace=wrap;startSize=23;" parent="1" vertex="1">
          <mxGeometry x="510" y="100" width="320" height="590" as="geometry" />
        </mxCell>
        <mxCell id="cqYoJdc-7ppIG0arM_6N-80" value="" style="endArrow=open;strokeColor=#FF0000;endFill=1;rounded=0;exitX=0.5;exitY=1;exitDx=0;exitDy=0;entryX=0.5;entryY=0;entryDx=0;entryDy=0;" parent="cqYoJdc-7ppIG0arM_6N-79" source="cqYoJdc-7ppIG0arM_6N-81" target="cqYoJdc-7ppIG0arM_6N-82" edge="1">
          <mxGeometry relative="1" as="geometry">
            <mxPoint x="126.10000000000001" y="121.26000000000005" as="sourcePoint" />
            <mxPoint x="129.9997413674507" y="172.00012931627464" as="targetPoint" />
            <Array as="points" />
          </mxGeometry>
        </mxCell>
        <mxCell id="cqYoJdc-7ppIG0arM_6N-81" value="Kiểm tra đăng nhập" style="rounded=1;whiteSpace=wrap;html=1;" parent="cqYoJdc-7ppIG0arM_6N-79" vertex="1">
          <mxGeometry x="95" y="92" width="120" height="60" as="geometry" />
        </mxCell>
        <mxCell id="cqYoJdc-7ppIG0arM_6N-82" value="" style="rhombus;fillColor=#ffffc0;strokeColor=#ff0000;" parent="cqYoJdc-7ppIG0arM_6N-79" vertex="1">
          <mxGeometry x="115" y="212" width="80" height="48" as="geometry" />
        </mxCell>
        <mxCell id="cqYoJdc-7ppIG0arM_6N-83" value="" style="endArrow=classic;html=1;rounded=0;dashed=1;entryX=0.91;entryY=-0.01;entryDx=0;entryDy=0;entryPerimeter=0;exitX=0.623;exitY=1.02;exitDx=0;exitDy=0;exitPerimeter=0;fillColor=#d80073;strokeColor=light-dark(#ff0000, #FFA9E0);" parent="cqYoJdc-7ppIG0arM_6N-79" source="cqYoJdc-7ppIG0arM_6N-84" target="cqYoJdc-7ppIG0arM_6N-81" edge="1">
          <mxGeometry width="50" height="50" relative="1" as="geometry">
            <mxPoint x="215" y="62" as="sourcePoint" />
            <mxPoint x="210" y="32" as="targetPoint" />
          </mxGeometry>
        </mxCell>
        <mxCell id="cqYoJdc-7ppIG0arM_6N-84" value="Tài khoản" style="rounded=0;whiteSpace=wrap;html=1;" parent="cqYoJdc-7ppIG0arM_6N-79" vertex="1">
          <mxGeometry x="175" y="32" width="70" height="30" as="geometry" />
        </mxCell>
        <mxCell id="cqYoJdc-7ppIG0arM_6N-90" value="" style="endArrow=open;strokeColor=#FF0000;endFill=1;rounded=0;exitX=1;exitY=0.5;exitDx=0;exitDy=0;entryX=0.037;entryY=0.87;entryDx=0;entryDy=0;entryPerimeter=0;" parent="1" source="cqYoJdc-7ppIG0arM_6N-55" target="cqYoJdc-7ppIG0arM_6N-81" edge="1">
          <mxGeometry relative="1" as="geometry">
            <mxPoint x="390" y="450" as="sourcePoint" />
            <mxPoint x="390" y="510" as="targetPoint" />
            <Array as="points" />
          </mxGeometry>
        </mxCell>
        <mxCell id="cqYoJdc-7ppIG0arM_6N-91" value="" style="endArrow=open;strokeColor=#FF0000;endFill=1;rounded=0;exitX=1;exitY=0.5;exitDx=0;exitDy=0;entryX=0;entryY=0.75;entryDx=0;entryDy=0;" parent="1" source="cqYoJdc-7ppIG0arM_6N-54" target="cqYoJdc-7ppIG0arM_6N-81" edge="1">
          <mxGeometry relative="1" as="geometry">
            <mxPoint x="410" y="420" as="sourcePoint" />
            <mxPoint x="614" y="302" as="targetPoint" />
            <Array as="points" />
          </mxGeometry>
        </mxCell>
        <mxCell id="cqYoJdc-7ppIG0arM_6N-92" value="" style="endArrow=open;strokeColor=#FF0000;endFill=1;rounded=0;exitX=0;exitY=0.5;exitDx=0;exitDy=0;entryX=1;entryY=0.75;entryDx=0;entryDy=0;" parent="1" source="cqYoJdc-7ppIG0arM_6N-82" target="cqYoJdc-7ppIG0arM_6N-55" edge="1">
          <mxGeometry relative="1" as="geometry">
            <mxPoint x="659.5" y="440" as="sourcePoint" />
            <mxPoint x="400" y="428" as="targetPoint" />
          </mxGeometry>
        </mxCell>
        <mxCell id="cqYoJdc-7ppIG0arM_6N-93" value="Sai" style="edgeLabel;html=1;align=center;verticalAlign=middle;resizable=0;points=[];" parent="cqYoJdc-7ppIG0arM_6N-92" connectable="0" vertex="1">
          <mxGeometry x="0.0104" y="1" relative="1" as="geometry">
            <mxPoint as="offset" />
          </mxGeometry>
        </mxCell>
        <mxCell id="cqYoJdc-7ppIG0arM_6N-94" value="" style="endArrow=open;strokeColor=#FF0000;endFill=1;rounded=0;exitX=0.5;exitY=1;exitDx=0;exitDy=0;entryX=1;entryY=0.5;entryDx=0;entryDy=0;" parent="1" source="cqYoJdc-7ppIG0arM_6N-82" target="cqYoJdc-7ppIG0arM_6N-56" edge="1">
          <mxGeometry relative="1" as="geometry">
            <mxPoint x="480" y="488" as="sourcePoint" />
            <mxPoint x="665" y="410" as="targetPoint" />
            <Array as="points" />
          </mxGeometry>
        </mxCell>
        <mxCell id="cqYoJdc-7ppIG0arM_6N-95" value="Đúng" style="edgeLabel;html=1;align=center;verticalAlign=middle;resizable=0;points=[];" parent="cqYoJdc-7ppIG0arM_6N-94" connectable="0" vertex="1">
          <mxGeometry x="-0.064" y="2" relative="1" as="geometry">
            <mxPoint as="offset" />
          </mxGeometry>
        </mxCell>
      </root>
    </mxGraphModel>
  </diagram>
</mxfile>
